<svg xmlns="http://www.w3.org/2000/svg" xmlns:xlink="http://www.w3.org/1999/xlink" xml:space="preserve" id="Layer_1" x="0" y="0" version="1.1" viewBox="0 0 349.6 103.4">
  <style>
    .st0{fill:#fff}.st1{fill:#27265f}.st2{fill:#09f}.st3{fill:#f49021}
  </style>
    <path d="M44.3 98.7h-.1c-3.3-1.4-5.4-4.6-5.4-8.2v-.7c.1-.8.2-1.6.6-2.5C19.6 84.7 4.9 68.1 4.9 48.2 4.9 26.6 22.5 9 44.1 9s39.2 17.6 39.2 39.2c0 18.4-12.5 34.1-30.3 38.2-.6.7-1.3 1.3-1.9 1.9l-.4.4c-1 1-2.1 1.9-3.2 2.8l-.9.7c-1.4 1.2-2.1 2.6-2.1 4.1 0 .6.1 1.2.3 1.7.1.1.1.3 0 .4-.2.2-.3.3-.5.3" class="st0"/>
    <path d="M44.1 9.3c21.5 0 39 17.4 39 39 0 18.5-12.9 34-30.2 38-.7.8-1.6 1.6-2.4 2.3-1.3 1.3-2.7 2.4-4.1 3.6-1.3 1.1-2.2 2.5-2.2 4.3q0 .9.3 1.8c.1.1 0 .2-.1.2h-.1c-3.1-1.3-5.3-4.4-5.3-8v-.7c.1-.9.3-1.8.7-2.7C20.2 84.7 5.1 68.2 5.1 48.2c0-21.5 17.5-38.9 39-38.9m0-.5C22.3 8.8 4.6 26.5 4.6 48.2c0 19.9 14.7 36.6 34.3 39.1-.3.8-.4 1.5-.5 2.3v.8c0 3.7 2.2 7 5.6 8.5.1 0 .2.1.3.1q.3 0 .6-.3.15-.3 0-.6c-.2-.5-.3-1-.3-1.6 0-1.5.7-2.8 2-3.9.3-.3.6-.5.9-.8 1.1-.9 2.2-1.8 3.2-2.8l.4-.4c.6-.6 1.3-1.2 1.9-1.8 8.5-2 16.2-6.8 21.7-13.7 5.6-7 8.7-15.8 8.7-24.7.1-21.9-17.6-39.6-39.3-39.6" class="st0"/>
    <path d="M44.1 9.3c21.5 0 39 17.4 39 39 0 18.5-12.9 34-30.2 38-.7.8-1.6 1.6-2.4 2.3-1.3 1.3-2.7 2.4-4.1 3.6-1.3 1.1-2.2 2.5-2.2 4.3q0 .9.3 1.8c.1.1 0 .2-.1.2h-.1c-3.1-1.3-5.3-4.4-5.3-8v-.7c.1-.9.3-1.8.7-2.7C20.2 84.7 5.1 68.2 5.1 48.2c0-21.5 17.5-38.9 39-38.9m0-3c-23.1 0-42 18.8-42 42 0 20.2 14.3 37.4 33.9 41.2v.9c0 4.7 2.8 8.9 7 10.7.4.2.9.3 1.3.3 1.1 0 2.1-.6 2.7-1.5.5-.9.6-1.9.2-2.8-.1-.2-.1-.4-.1-.7 0-.5.1-1.1 1.1-2 .3-.3.6-.5.9-.8 1.1-.9 2.3-1.9 3.3-3l.4-.4c.5-.5 1-.9 1.5-1.4C63 86.6 71 81.5 76.7 74.4c6-7.4 9.3-16.8 9.3-26.3 0-23-18.8-41.8-41.9-41.8m61.3 8.3h6.9v52.5h-6.9zm17.8 59.6c3.4 2.2 7.3 3.7 11.3 3.7 6.8 0 11.4-4.1 11.4-10.8v-2.6l-.1-.1c-2.4 1.7-5.9 2.7-9.7 2.7-9.7 0-17.5-7.3-17.5-17.9 0-10.1 6.9-18.7 18.5-18.7 3.7 0 6.7.9 9 2l6.3-1.1V67c0 10.4-7 16.9-17.9 16.9-4.4 0-8.4-1.2-11.3-2.7zm13.7-12.7c3.3 0 6.7-1.2 8.9-2.9V38.9c-2.2-1.4-5.7-2.4-9-2.4-7.2 0-11.8 5.5-11.8 12.4.2 7.2 4.9 12.6 11.9 12.6m22-30h6.5V36l.1.1c3.1-3.1 7.5-5.3 12.4-5.3 3.9 0 7.3 1.4 9.5 3.9 1.9 2.2 3 5 3 10.5v21.9h-6.5V46.3c0-3.7-.5-5.9-1.7-7.3-1.5-1.7-3.8-2.3-5.7-2.3-4.1 0-8.6 2.5-11.2 5.9V67h-6.5zm41.3-16.9c2.5 0 4.6 2 4.6 4.6s-2 4.6-4.6 4.6c-2.5 0-4.6-2-4.6-4.6s2.1-4.6 4.6-4.6m-3.3 16.9h6.5v35.6h-6.5zm19.4 23.3V37.3h-6.6v-5.9h6.6v-9.8l6.5-1.1v10.8h10.7v5.9h-10.7v16.1c0 4.4.7 8.5 5.3 8.5 1.9 0 4-.7 5.3-1.6v6.1c-1.5.7-4 1.3-6.4 1.3-2.6 0-5.8-.7-8.1-3.3-1.8-1.7-2.6-4.6-2.6-9.5m29.5-3.6c1 7 6.1 10.9 13.2 10.9 5 0 9-1.9 12.3-4.4v7c-3.2 2-8.1 3.3-12.7 3.3-11 0-19.3-7.4-19.3-18.7s8.2-18.7 17.8-18.7c8.7 0 16.2 6.1 16.2 17.3 0 1.1-.1 2.4-.2 3.3zm.2-5.2h21c-.6-7.1-5.8-9.5-10.1-9.5-4.7 0-9.8 2.9-10.9 9.5m42.9-3.6V14.6h6.9v27c0 6.4.4 10.5 2 13.6 1.8 3.4 5.6 6.3 12.4 6.3 6.4 0 10.3-2.4 12.3-6.3 1.7-3.1 1.9-7.3 1.9-13.3V14.6h6.7v27c0 7.6-.4 13.5-3.5 18.1-3.3 5.1-9.6 8.2-17.8 8.2s-14.4-3.2-17.6-8.2c-2.8-4.6-3.3-10.8-3.3-17.3m48.7-27.8h6.9v52.5h-6.9z" class="logo-type"/>
    <circle cx="44.1" cy="48.2" r="39" class="st1"/>
    <use xlink:href="#reuse-0" class="logo-type"/>
    <use xlink:href="#reuse-1" class="st2"/>
    <use xlink:href="#reuse-3" class="st3"/>
    <defs>
    <path id="reuse-0" d="M45.5 5.4c-.6-.3-1.3-.4-1.9-.3-1.6.4-3.4 3.1-4.4 4.3-1.4 1.6-2.6 3.4-3.6 5.3-5.3 9.3-5 20.4-2.8 30.6 1.4 6.6 3.6 13 6.1 19.1l10.4.1c.4 0 2.1-5.3 2.3-5.9.7-1.9 1.3-3.9 1.9-5.8 1-3.4 1.9-6.9 2.6-10.4 1-5.5 1.4-11.2.5-16.7-.7-4.3-2.1-8.4-4.4-12.2-1.2-1.9-4-6.9-6.7-8.1m-1.3 28.3c-3.3 0-5.9-2.7-5.9-5.9 0-3.3 2.7-5.9 5.9-5.9s5.9 2.7 5.9 5.9c0 3.3-2.7 5.9-5.9 5.9m7.7 31.5c1.9-4.5 3.4-8.8 4.5-12.8 1.6 1 3.9 5.6 5 8.4.4 1.2.6 3.2.4 4.4-.4 2.6-1.3 7.2-3.6 10.4-.2.3-.7.1-.7-.2.1-1 .1-2.1 0-3-.1-1.7-.9-3.3-2.1-4.5s-2.6-2.3-3.5-2.7"/>
        <path id="reuse-1" d="M30.5 72.2q-.15 1.5 0 3c0 .4-.5.6-.7.2-2.4-3.3-3.3-7.9-3.6-10.4-.1-1.3 0-3.3.4-4.4 1.1-2.7 3.4-7.3 5.1-8.3 1 4 2.5 8.3 4.4 12.8-1 .4-2.4 1.5-3.5 2.5-1.1 1.2-1.9 2.9-2.1 4.6M42.7 5.5s-15.9 17 .7 58.9h-4.5S18.2 24.9 42.7 5.5"/>
        <path id="reuse-3" d="M34.7 85.5c-.4-.7-.5-1.4-.4-2.2.3-1.4 1.4-2.4 2.8-2.6 2-.2 3.6 1.3 3.6 3.3 0 1-.5 1.6-.9 2.4-.5 1.1-.8 2.1-.9 3.3v.7c0 3.6 2.1 6.7 5.3 8 .1.1.3-.1.2-.2q-.3-.9-.3-1.8c0-1.8.9-3.2 2.2-4.3 1.4-1.2 2.8-2.3 4.1-3.6s2.7-2.4 3.6-4c1-1.8 1.6-3.8 1.6-6 0-4.6-2.7-8.9-7-10.8-2.1-1-4.4-1.3-6.7-.9-4.7.7-8.7 4.5-9.7 9.2-.4 1.7-.3 3.5.1 5.2.2.8.4 1.6.8 2.3.7.7 1.2 1.3 1.6 2"/>
        <path id="reuse-4" d="M40.5 85.3s11.5-8.4 4.4-18.7l14 .8-.1 33.2-19.6-.1c-.1.1-4.7-12.1 1.3-15.2"/>
  </defs>
    <clipPath id="SVGID_00000124161730200959699830000011505035801868656258_">
    <use xlink:href="#reuse-3" style="overflow:visible"/>
  </clipPath>
    <use xlink:href="#reuse-4" style="clip-path:url(#SVGID_00000124161730200959699830000011505035801868656258_);fill:#f05a2b"/>
    <circle cx="44.1" cy="48.2" r="39" class="st1"/>
    <use xlink:href="#reuse-0" class="st0"/>
    <use xlink:href="#reuse-1" class="st2"/>
    <use xlink:href="#reuse-3" class="st3"/>
    <defs>
    <use xlink:href="#reuse-3" id="SVGID_00000114789979608707334650000003536205579453510290_"/>
  </defs>
    <clipPath id="SVGID_00000029036584987655005720000007086229884323525515_">
    <use xlink:href="#SVGID_00000114789979608707334650000003536205579453510290_" style="overflow:visible"/>
  </clipPath>
    <use xlink:href="#reuse-4" style="clip-path:url(#SVGID_00000029036584987655005720000007086229884323525515_);fill:#f05a2b"/>
</svg>
